<svg xmlns="http://www.w3.org/2000/svg" version="1.0" width="267.000000pt" height="211.000000pt" viewBox="0 0 267.000000 211.000000" preserveAspectRatio="xMidYMid meet">
<metadata fill="#ffffff">
Created by potrace 1.10, written by Peter Selinger 2001-2011
</metadata>
<g transform="translate(0.000000,211.000000) scale(0.100000,-0.100000)" fill="#ffffff" stroke="none">
<path d="M478 2055 c-3 -4 -68 -11 -144 -16 -100 -7 -147 -15 -169 -27 -63 -37 -60 9 -60 -952 0 -820 1 -878 18 -903 9 -15 29 -35 44 -44 25 -17 97 -18 1156 -21 836 -2 1133 1 1143 9 8 6 14 18 14 25 0 12 -41 14 -229 14 -126 0 -236 2 -243 5 -10 4 7 27 52 74 36 37 75 82 88 100 13 17 31 31 41 31 33 0 164 50 213 81 68 44 125 112 166 198 31 64 37 88 40 160 5 109 -19 180 -82 245 -68 69 -114 88 -228 94 l-98 5 0 61 c0 33 -5 68 -10 76 -8 13 -57 15 -322 18 -172 2 -316 6 -320 10 -5 5 -13 131 -18 281 -11 300 -14 311 -82 380 -68 70 -88 74 -428 83 -168 5 -357 11 -420 14 -64 3 -118 2 -122 -1z m218 -107 c-3 -29 -6 -131 -6 -227 l0 -175 -27 25 c-61 55 -58 54 -108 14 l-45 -37 0 226 0 226 96 0 97 0 -7 -52z m-442 -60 c7 -108 8 -1722 1 -1730 -12 -12 -58 7 -73 30 -16 24 -17 95 -17 880 l0 854 33 29 c18 16 36 29 41 29 4 0 11 -41 15 -92z m189 22 c3 -38 3 -141 0 -227 -6 -164 4 -243 31 -243 8 0 37 18 65 40 28 22 57 40 65 40 8 0 35 -18 61 -40 49 -43 70 -43 86 -3 5 13 9 133 9 265 l0 241 279 -6 c309 -6 307 -6 375 -76 l39 -40 7 -243 c5 -134 11 -251 15 -261 4 -9 5 -27 1 -40 -5 -21 -10 -22 -143 -25 -75 -2 -140 -5 -143 -8 -3 -3 -5 -189 -5 -412 0 -456 6 -519 61 -641 19 -41 34 -75 34 -77 0 -2 -211 -4 -470 -4 l-470 0 0 915 0 915 49 0 48 0 6 -70z m1537 -1007 c0 -224 -14 -377 -42 -451 -29 -77 -113 -161 -205 -205 -60 -28 -78 -32 -153 -32 -98 0 -122 11 -170 76 -74 102 -87 205 -75 561 l7 218 217 3 c119 1 262 3 319 5 l102 2 0 -177z m370 22 c50 -26 70 -61 70 -124 -1 -99 -58 -184 -155 -231 -39 -19 -49 -20 -56 -9 -12 19 -11 260 1 295 6 17 28 41 52 57 49 31 50 32 88 12z" fill="#ffffff"/>
</g>
</svg>